{
  "accessors": [
    {
      "bufferView": 2,
      "componentType": 5126,
      "count": 20,
      "max": [
        0.03125,
        0.09375,
        0.0338541641831398
      ],
      "min": [
        -0.15625,
        -0.09375,
        0.0026041660457849503
      ],
      "type": "VEC3"
    },
    {
      "bufferView": 2,
      "byteOffset": 240,
      "componentType": 5126,
      "count": 20,
      "max": [
        0.44721361994743347,
        0.4472135901451111,
        1.0
      ],
      "min": [
        -0.44721361994743347,
        -0.4472135901451111,
        0.8944272994995117
      ],
      "type": "VEC3"
    },
    {
      "bufferView": 1,
      "componentType": 5126,
      "count": 20,
      "max": [
        0.03125,
        0.904296875
      ],
      "min": [
        0.025390625,
        0.8984375
      ],
      "type": "VEC2"
    },
    {
      "bufferView": 1,
      "byteOffset": 160,
      "componentType": 5126,
      "count": 20,
      "max": [
        0.03125,
        0.904296875
      ],
      "min": [
        0.025390625,
        0.8984375
      ],
      "type": "VEC2"
    },
    {
      "bufferView": 0,
      "componentType": 5125,
      "count": 30,
      "type": "SCALAR"
    },
    {
      "bufferView": 2,
      "byteOffset": 480,
      "componentType": 5126,
      "count": 1071,
      "max": [
        0.53125,
        0.1875000298023224,
        2.375
      ],
      "min": [
        -0.65625,
        -0.3125,
        0.0
      ],
      "type": "VEC3"
    },
    {
      "bufferView": 2,
      "byteOffset": 13332,
      "componentType": 5126,
      "count": 1071,
      "max": [
        1.0,
        1.0,
        1.0
      ],
      "min": [
        -1.0,
        -1.0,
        -1.0
      ],
      "type": "VEC3"
    },
    {
      "bufferView": 1,
      "byteOffset": 320,
      "componentType": 5126,
      "count": 1071,
      "max": [
        0.08984375,
        0.998046875
      ],
      "min": [
        0.001953125,
        0.90234375
      ],
      "type": "VEC2"
    },
    {
      "bufferView": 1,
      "byteOffset": 8888,
      "componentType": 5126,
      "count": 1071,
      "max": [
        0.08984375,
        0.998046875
      ],
      "min": [
        0.001953125,
        0.90234375
      ],
      "type": "VEC2"
    },
    {
      "bufferView": 0,
      "byteOffset": 120,
      "componentType": 5125,
      "count": 2112,
      "type": "SCALAR"
    },
    {
      "bufferView": 2,
      "byteOffset": 26184,
      "componentType": 5126,
      "count": 4,
      "max": [
        0.25,
        8.195884859674152e-09,
        0.5
      ],
      "min": [
        -0.25,
        -8.195884859674152e-09,
        0.0
      ],
      "type": "VEC3"
    },
    {
      "bufferView": 2,
      "byteOffset": 26232,
      "componentType": 5126,
      "count": 4,
      "max": [
        0.0,
        1.0,
        -3.278353943869661e-08
      ],
      "min": [
        0.0,
        1.0,
        -3.278353943869661e-08
      ],
      "type": "VEC3"
    },
    {
      "bufferView": 1,
      "byteOffset": 17456,
      "componentType": 5126,
      "count": 4,
      "max": [
        0.17578125,
        0.994140625
      ],
      "min": [
        0.16015625,
        0.978515625
      ],
      "type": "VEC2"
    },
    {
      "bufferView": 1,
      "byteOffset": 17488,
      "componentType": 5126,
      "count": 4,
      "max": [
        0.17578125,
        0.994140625
      ],
      "min": [
        0.16015625,
        0.978515625
      ],
      "type": "VEC2"
    },
    {
      "bufferView": 0,
      "byteOffset": 8568,
      "componentType": 5125,
      "count": 6,
      "type": "SCALAR"
    },
    {
      "bufferView": 2,
      "byteOffset": 26280,
      "componentType": 5126,
      "count": 88,
      "max": [
        0.03125,
        0.03125,
        0.5
      ],
      "min": [
        -0.03125,
        -0.03125,
        0.0
      ],
      "type": "VEC3"
    },
    {
      "bufferView": 2,
      "byteOffset": 27336,
      "componentType": 5126,
      "count": 88,
      "max": [
        1.0,
        1.0,
        1.0
      ],
      "min": [
        -1.0,
        -1.0,
        -1.0
      ],
      "type": "VEC3"
    },
    {
      "bufferView": 1,
      "byteOffset": 17520,
      "componentType": 5126,
      "count": 88,
      "max": [
        0.017578125,
        0.817293643951416
      ],
      "min": [
        0.005859375,
        0.798828125
      ],
      "type": "VEC2"
    },
    {
      "bufferView": 1,
      "byteOffset": 18224,
      "componentType": 5126,
      "count": 88,
      "max": [
        0.017578125,
        0.817293643951416
      ],
      "min": [
        0.005859375,
        0.798828125
      ],
      "type": "VEC2"
    },
    {
      "bufferView": 0,
      "byteOffset": 8592,
      "componentType": 5125,
      "count": 204,
      "type": "SCALAR"
    },
    {
      "bufferView": 2,
      "byteOffset": 28392,
      "componentType": 5126,
      "count": 286,
      "max": [
        0.4765624701976776,
        0.4765624701976776,
        0.6873739957809448
      ],
      "min": [
        -0.4765624701976776,
        -0.4765624701976776,
        -0.00012600421905517578
      ],
      "type": "VEC3"
    },
    {
      "bufferView": 2,
      "byteOffset": 31824,
      "componentType": 5126,
      "count": 286,
      "max": [
        1.0,
        1.0,
        1.0
      ],
      "min": [
        -1.0,
        -1.0,
        -1.0
      ],
      "type": "VEC3"
    },
    {
      "bufferView": 1,
      "byteOffset": 18928,
      "componentType": 5126,
      "count": 286,
      "max": [
        0.0234375,
        0.841796875
      ],
      "min": [
        0.00390625,
        0.798828125
      ],
      "type": "VEC2"
    },
    {
      "bufferView": 1,
      "byteOffset": 21216,
      "componentType": 5126,
      "count": 286,
      "max": [
        0.0234375,
        0.841796875
      ],
      "min": [
        0.00390625,
        0.798828125
      ],
      "type": "VEC2"
    },
    {
      "bufferView": 0,
      "byteOffset": 9408,
      "componentType": 5125,
      "count": 492,
      "type": "SCALAR"
    },
    {
      "bufferView": 2,
      "byteOffset": 35256,
      "componentType": 5126,
      "count": 160,
      "max": [
        0.12499997019767761,
        0.125,
        0.6886160373687744
      ],
      "min": [
        -0.1250000298023224,
        -0.125,
        0.0011160671710968018
      ],
      "type": "VEC3"
    },
    {
      "bufferView": 2,
      "byteOffset": 37176,
      "componentType": 5126,
      "count": 160,
      "max": [
        1.0,
        1.0,
        1.0
      ],
      "min": [
        -1.0,
        -1.0,
        -1.0
      ],
      "type": "VEC3"
    },
    {
      "bufferView": 1,
      "byteOffset": 23504,
      "componentType": 5126,
      "count": 160,
      "max": [
        0.0234375,
        0.841796875
      ],
      "min": [
        0.00390625,
        0.798828125
      ],
      "type": "VEC2"
    },
    {
      "bufferView": 1,
      "byteOffset": 24784,
      "componentType": 5126,
      "count": 160,
      "max": [
        0.0234375,
        0.841796875
      ],
      "min": [
        0.00390625,
        0.798828125
      ],
      "type": "VEC2"
    },
    {
      "bufferView": 0,
      "byteOffset": 11376,
      "componentType": 5125,
      "count": 312,
      "type": "SCALAR"
    },
    {
      "bufferView": 2,
      "byteOffset": 39096,
      "componentType": 5126,
      "count": 116,
      "max": [
        0.125,
        0.125,
        0.31321021914482117
      ],
      "min": [
        -0.125,
        -0.125,
        0.000710219144821167
      ],
      "type": "VEC3"
    },
    {
      "bufferView": 2,
      "byteOffset": 40488,
      "componentType": 5126,
      "count": 116,
      "max": [
        1.0,
        1.0,
        1.0
      ],
      "min": [
        -1.0,
        -1.0,
        -1.0
      ],
      "type": "VEC3"
    },
    {
      "bufferView": 1,
      "byteOffset": 26064,
      "componentType": 5126,
      "count": 116,
      "max": [
        0.021484375,
        0.884765625
      ],
      "min": [
        0.00390625,
        0.857421875
      ],
      "type": "VEC2"
    },
    {
      "bufferView": 1,
      "byteOffset": 26992,
      "componentType": 5126,
      "count": 116,
      "max": [
        0.021484375,
        0.884765625
      ],
      "min": [
        0.00390625,
        0.857421875
      ],
      "type": "VEC2"
    },
    {
      "bufferView": 0,
      "byteOffset": 12624,
      "componentType": 5125,
      "count": 234,
      "type": "SCALAR"
    },
    {
      "bufferView": 2,
      "byteOffset": 41880,
      "componentType": 5126,
      "count": 270,
      "max": [
        0.4765624701976776,
        0.4765625,
        0.4999527335166931
      ],
      "min": [
        -0.4765624701976776,
        -0.4765624701976776,
        -4.725158214569092e-05
      ],
      "type": "VEC3"
    },
    {
      "bufferView": 2,
      "byteOffset": 45120,
      "componentType": 5126,
      "count": 270,
      "max": [
        1.0,
        1.0,
        1.0
      ],
      "min": [
        -1.0,
        -1.0,
        -1.0
      ],
      "type": "VEC3"
    },
    {
      "bufferView": 1,
      "byteOffset": 27920,
      "componentType": 5126,
      "count": 270,
      "max": [
        0.021484375,
        0.884765625
      ],
      "min": [
        0.00390625,
        0.84765625
      ],
      "type": "VEC2"
    },
    {
      "bufferView": 1,
      "byteOffset": 30080,
      "componentType": 5126,
      "count": 270,
      "max": [
        0.021484375,
        0.884765625
      ],
      "min": [
        0.00390625,
        0.84765625
      ],
      "type": "VEC2"
    },
    {
      "bufferView": 0,
      "byteOffset": 13560,
      "componentType": 5125,
      "count": 492,
      "type": "SCALAR"
    },
    {
      "bufferView": 2,
      "byteOffset": 48360,
      "componentType": 5126,
      "count": 348,
      "max": [
        0.5,
        0.0309244766831398,
        1.3130452632904053
      ],
      "min": [
        -0.5,
        -0.1565755158662796,
        0.0005453228950500488
      ],
      "type": "VEC3"
    },
    {
      "bufferView": 2,
      "byteOffset": 52536,
      "componentType": 5126,
      "count": 348,
      "max": [
        1.0,
        1.0,
        1.0
      ],
      "min": [
        -1.0,
        -1.0,
        -1.0
      ],
      "type": "VEC3"
    },
    {
      "bufferView": 1,
      "byteOffset": 32240,
      "componentType": 5126,
      "count": 348,
      "max": [
        0.14453125,
        0.994140625
      ],
      "min": [
        0.1171875,
        0.955078125
      ],
      "type": "VEC2"
    },
    {
      "bufferView": 1,
      "byteOffset": 35024,
      "componentType": 5126,
      "count": 348,
      "max": [
        0.14453125,
        0.994140625
      ],
      "min": [
        0.1171875,
        0.955078125
      ],
      "type": "VEC2"
    },
    {
      "bufferView": 0,
      "byteOffset": 15528,
      "componentType": 5125,
      "count": 738,
      "type": "SCALAR"
    }
  ],
  "asset": {
    "extras": {
      "author": "Zimzagoon (https://sketchfab.com/Zimzagoon)",
      "license": "CC-BY-4.0 (http://creativecommons.org/licenses/by/4.0/)",
      "source": "https://sketchfab.com/3d-models/low-poly-flowers-and-foilage-c19529a0ee8d427495157322bd3d2947",
      "title": "Low Poly Flowers and Foilage"
    },
    "generator": "Sketchfab-15.30.0",
    "version": "2.0"
  },
  "bufferViews": [
    {
      "buffer": 0,
      "byteLength": 18480,
      "name": "floatBufferViews",
      "target": 34963
    },
    {
      "buffer": 0,
      "byteLength": 37808,
      "byteOffset": 18480,
      "byteStride": 8,
      "name": "floatBufferViews",
      "target": 34962
    },
    {
      "buffer": 0,
      "byteLength": 56712,
      "byteOffset": 56288,
      "byteStride": 12,
      "name": "floatBufferViews",
      "target": 34962
    }
  ],
  "buffers": [
    {
      "byteLength": 113000,
      "uri": "scene.bin"
    }
  ],
  "images": [
    {
      "uri": "textures/sunflower_baseColor.png"
    }
  ],
  "materials": [
    {
      "alphaMode": "BLEND",
      "doubleSided": true,
      "name": "sunflower",
      "pbrMetallicRoughness": {
        "baseColorTexture": {
          "index": 0
        },
        "metallicFactor": 0.0,
        "roughnessFactor": 0.8211145618000169
      }
    }
  ],
  "meshes": [
    {
      "name": "tiny flower_sunflower_0",
      "primitives": [
        {
          "attributes": {
            "NORMAL": 1,
            "POSITION": 0,
            "TEXCOORD_0": 2,
            "TEXCOORD_1": 3
          },
          "indices": 4,
          "material": 0,
          "mode": 4
        }
      ]
    },
    {
      "name": "Sunflower_sunflower_0",
      "primitives": [
        {
          "attributes": {
            "NORMAL": 6,
            "POSITION": 5,
            "TEXCOORD_0": 7,
            "TEXCOORD_1": 8
          },
          "indices": 9,
          "material": 0,
          "mode": 4
        }
      ]
    },
    {
      "name": "Grass_sunflower_0",
      "primitives": [
        {
          "attributes": {
            "NORMAL": 11,
            "POSITION": 10,
            "TEXCOORD_0": 12,
            "TEXCOORD_1": 13
          },
          "indices": 14,
          "material": 0,
          "mode": 4
        }
      ]
    },
    {
      "name": "DandeStem_sunflower_0",
      "primitives": [
        {
          "attributes": {
            "NORMAL": 16,
            "POSITION": 15,
            "TEXCOORD_0": 17,
            "TEXCOORD_1": 18
          },
          "indices": 19,
          "material": 0,
          "mode": 4
        }
      ]
    },
    {
      "name": "Dande3_sunflower_0",
      "primitives": [
        {
          "attributes": {
            "NORMAL": 21,
            "POSITION": 20,
            "TEXCOORD_0": 22,
            "TEXCOORD_1": 23
          },
          "indices": 24,
          "material": 0,
          "mode": 4
        }
      ]
    },
    {
      "name": "Dande2_sunflower_0",
      "primitives": [
        {
          "attributes": {
            "NORMAL": 26,
            "POSITION": 25,
            "TEXCOORD_0": 27,
            "TEXCOORD_1": 28
          },
          "indices": 29,
          "material": 0,
          "mode": 4
        }
      ]
    },
    {
      "name": "Dande1Samll_sunflower_0",
      "primitives": [
        {
          "attributes": {
            "NORMAL": 31,
            "POSITION": 30,
            "TEXCOORD_0": 32,
            "TEXCOORD_1": 33
          },
          "indices": 34,
          "material": 0,
          "mode": 4
        }
      ]
    },
    {
      "name": "Dande1_sunflower_0",
      "primitives": [
        {
          "attributes": {
            "NORMAL": 36,
            "POSITION": 35,
            "TEXCOORD_0": 37,
            "TEXCOORD_1": 38
          },
          "indices": 39,
          "material": 0,
          "mode": 4
        }
      ]
    },
    {
      "name": "Daffadil_sunflower_0",
      "primitives": [
        {
          "attributes": {
            "NORMAL": 41,
            "POSITION": 40,
            "TEXCOORD_0": 42,
            "TEXCOORD_1": 43
          },
          "indices": 44,
          "material": 0,
          "mode": 4
        }
      ]
    }
  ],
  "nodes": [
    {
      "children": [
        1
      ],
      "matrix": [
        1.0,
        0.0,
        0.0,
        0.0,
        0.0,
        2.220446049250313e-16,
        -1.0,
        0.0,
        0.0,
        1.0,
        2.220446049250313e-16,
        0.0,
        0.0,
        0.0,
        0.0,
        1.0
      ],
      "name": "Sketchfab_model"
    },
    {
      "children": [
        2
      ],
      "matrix": [
        0.009999999776482582,
        0.0,
        0.0,
        0.0,
        0.0,
        0.0,
        0.009999999776482582,
        0.0,
        0.0,
        -0.009999999776482582,
        0.0,
        0.0,
        0.0,
        0.0,
        0.0,
        1.0
      ],
      "name": "d412400bb9484b25bd6d76d72d9111f1.fbx"
    },
    {
      "children": [
        3,
        5,
        7,
        9,
        11,
        13,
        15,
        17,
        19
      ],
      "name": "RootNode"
    },
    {
      "children": [
        4
      ],
      "matrix": [
        100.0,
        0.0,
        0.0,
        0.0,
        -0.0,
        -1.629206793918314e-05,
        -99.99999999999868,
        0.0,
        0.0,
        99.99999999999868,
        -1.629206793918314e-05,
        0.0,
        -193.75,
        0.0,
        0.0,
        1.0
      ],
      "name": "tiny flower"
    },
    {
      "mesh": 0,
      "name": "tiny flower_sunflower_0"
    },
    {
      "children": [
        6
      ],
      "matrix": [
        100.0,
        0.0,
        0.0,
        0.0,
        0.0,
        -1.629206793918314e-05,
        -99.99999999999868,
        0.0,
        0.0,
        99.99999999999868,
        -1.629206793918314e-05,
        0.0,
        6.25,
        0.0,
        -6.25,
        1.0
      ],
      "name": "Sunflower"
    },
    {
      "mesh": 1,
      "name": "Sunflower_sunflower_0"
    },
    {
      "children": [
        8
      ],
      "matrix": [
        100.0,
        0.0,
        0.0,
        0.0,
        -0.0,
        -1.629206793918314e-05,
        -99.99999999999868,
        0.0,
        0.0,
        99.99999999999868,
        -1.629206793918314e-05,
        0.0,
        -100.0,
        0.0,
        0.0,
        1.0
      ],
      "name": "Grass"
    },
    {
      "mesh": 2,
      "name": "Grass_sunflower_0"
    },
    {
      "children": [
        10
      ],
      "matrix": [
        100.0,
        0.0,
        0.0,
        0.0,
        0.0,
        -1.629206793918314e-05,
        -99.99999999999868,
        0.0,
        0.0,
        99.99999999999868,
        -1.629206793918314e-05,
        0.0,
        600.0,
        0.0,
        0.0,
        1.0
      ],
      "name": "DandeStem"
    },
    {
      "mesh": 3,
      "name": "DandeStem_sunflower_0"
    },
    {
      "children": [
        12
      ],
      "matrix": [
        100.0,
        0.0,
        0.0,
        0.0,
        0.0,
        -1.629206793918314e-05,
        -99.99999999999868,
        0.0,
        0.0,
        99.99999999999868,
        -1.629206793918314e-05,
        0.0,
        500.0,
        0.0,
        0.0,
        1.0
      ],
      "name": "Dande3"
    },
    {
      "mesh": 4,
      "name": "Dande3_sunflower_0"
    },
    {
      "children": [
        14
      ],
      "matrix": [
        100.0,
        0.0,
        0.0,
        0.0,
        0.0,
        -1.629206793918314e-05,
        -99.99999999999868,
        0.0,
        0.0,
        99.99999999999868,
        -1.629206793918314e-05,
        0.0,
        400.0,
        0.0,
        0.0,
        1.0
      ],
      "name": "Dande2"
    },
    {
      "mesh": 5,
      "name": "Dande2_sunflower_0"
    },
    {
      "children": [
        16
      ],
      "matrix": [
        100.0,
        0.0,
        0.0,
        0.0,
        0.0,
        -1.629206793918314e-05,
        -99.99999999999868,
        0.0,
        0.0,
        99.99999999999868,
        -1.629206793918314e-05,
        0.0,
        300.0,
        0.0,
        0.0,
        1.0
      ],
      "name": "Dande1Samll"
    },
    {
      "mesh": 6,
      "name": "Dande1Samll_sunflower_0"
    },
    {
      "children": [
        18
      ],
      "matrix": [
        100.0,
        0.0,
        0.0,
        0.0,
        0.0,
        -1.629206793918314e-05,
        -99.99999999999868,
        0.0,
        0.0,
        99.99999999999868,
        -1.629206793918314e-05,
        0.0,
        200.0,
        0.0,
        0.0,
        1.0
      ],
      "name": "Dande1"
    },
    {
      "mesh": 7,
      "name": "Dande1_sunflower_0"
    },
    {
      "children": [
        20
      ],
      "matrix": [
        100.0,
        0.0,
        0.0,
        0.0,
        0.0,
        -1.629206793918314e-05,
        -99.99999999999868,
        0.0,
        0.0,
        99.99999999999868,
        -1.629206793918314e-05,
        0.0,
        100.0,
        0.0,
        0.0,
        1.0
      ],
      "name": "Daffadil"
    },
    {
      "mesh": 8,
      "name": "Daffadil_sunflower_0"
    }
  ],
  "samplers": [
    {
      "magFilter": 9728,
      "minFilter": 9986,
      "wrapS": 10497,
      "wrapT": 10497
    }
  ],
  "scene": 0,
  "scenes": [
    {
      "name": "Sketchfab_Scene",
      "nodes": [
        0
      ]
    }
  ],
  "textures": [
    {
      "sampler": 0,
      "source": 0
    }
  ]
}
